<svg width="26" height="22" viewBox="0 0 26 22" xmlns="http://www.w3.org/2000/svg"><g fill="#1A1919" fill-rule="evenodd"><path d="M16.8.335c-3.673 0-6.893 2.258-8.14 5.595-.627-.257-1.184-.372-2.107-.372-3.332 0-6.038 2.676-6.038 5.96 0 3.29 2.706 5.962 6.038 5.962h4.16c.435 0 .796-.35.796-.786 0-.435-.362-.786-.797-.786h-4.16c-2.45 0-4.446-1.97-4.446-4.39s1.995-4.39 4.446-4.39c.955 0 1.28.116 2.23.593l.004.006c.032.016.064.02.095.037.022.005.038.016.06.02h.01c.026.01.047.01.074.01.02.007.047.012.074.012.027.005.058 0 .085 0 .02 0 .042 0 .07-.005.025-.006.052-.01.084-.016.02-.005.04-.01.062-.02.027-.006.048-.022.075-.033.02-.01.042-.014.063-.025.027-.015.048-.03.07-.047.015-.016.037-.026.058-.042.02-.02.037-.042.058-.063l.048-.047c.02-.026.037-.057.053-.09.01-.01.02-.02.026-.036v-.005c.016-.03.027-.057.038-.09.006-.02.017-.04.022-.062 0-.005.005-.005.005-.01.785-3.127 3.62-5.306 6.882-5.306 3.91 0 7.093 3.137 7.093 7.003 0 3.86-3.183 6.998-7.094 6.998-.44 0-.797.35-.797.786 0 .435.356.786.796.786 4.79 0 8.685-3.845 8.685-8.57 0-4.73-3.894-8.575-8.686-8.575"/><path d="M17.4 14.31c.2 0 .402-.073.556-.225.313-.304.318-.8.01-1.11l-3.63-3.646c-.153-.148-.354-.237-.567-.237-.218 0-.42.09-.568.236l-3.57 3.598c-.31.31-.304.806.01 1.11.312.304.816.3 1.124-.01l2.165-2.185v9.282c0 .43.357.786.797.786.44 0 .796-.355.796-.785v-9.36l2.308 2.31c.155.157.362.235.57.235"/></g></svg>