<svg width="22" height="27" viewBox="0 0 22 27" xmlns="http://www.w3.org/2000/svg"><g fill="none" fill-rule="evenodd"><path d="M21.822 17.77L20.46 15.7l-.92-1.396-1.046-1.597c-.29-.44-.78-.707-1.308-.707H11v.83h6.252c.268 0 .517.138.66.363l2.916 4.588-6.035-.01c-.717 1.794-1.98 2.692-3.793 2.692-1.812 0-3.076-.898-3.793-2.693l-5.923.01 2.986-4.593c.144-.222.39-.356.656-.356H11V12H4.812c-.526 0-1.017.265-1.306.704L.163 17.78 0 18.02V25.7C0 26.416.576 27 1.284 27h19.432c.708 0 1.284-.584 1.284-1.302V18.08l-.178-.31z" fill="#FFF" fill-rule="nonzero"/><path d="M11.385 2.637L15.48 6.81c.243.247.638.25.885.01.246-.243.25-.64.008-.885L11.22.683c-.118-.12-.278-.186-.444-.187-.167 0-.327.065-.445.183L5.07 5.94c-.122.122-.183.282-.183.442 0 .16.06.32.183.44.245.245.64.245.884 0l4.18-4.18v6.7c0 .345.28.625.626.625.345 0 .625-.28.625-.625V2.637z" fill="#FFF"/></g></svg>