<svg width="19" height="19" viewBox="0 0 19 19" xmlns="http://www.w3.org/2000/svg"><path d="M12.37 6.408l-4.616 4.56-1.26-1.438c-.278-.32-.766-.353-1.086-.073-.32.28-.352.767-.072 1.087l1.797 2.054c.14.16.34.255.552.263h.028c.202 0 .397-.078.54-.22l5.2-5.136c.304-.3.306-.787.007-1.09-.3-.303-.786-.305-1.09-.006M17.175 16c0 .708-.576 1.284-1.283 1.284H2.938c-.707 0-1.283-.576-1.283-1.284V3.047c0-.707.576-1.284 1.283-1.284H15.89c.708 0 1.284.577 1.284 1.284V16zM15.89.223H2.938C1.38.223.113 1.49.113 3.047V16c0 1.557 1.267 2.824 2.824 2.824H15.89c1.558 0 2.825-1.267 2.825-2.824V3.047c0-1.557-1.267-2.824-2.824-2.824z" fill="#1A1919" fill-rule="evenodd"/></svg>