<svg width="23" height="26" viewBox="0 0 23 26" xmlns="http://www.w3.org/2000/svg"><g stroke="#FFF" stroke-width="1.5" fill="none" fill-rule="evenodd"><path d="M22.25 5.507L17.574.75H5.134c-.304 0-.55.246-.55.55v23.4c0 .304.246.55.55.55H21.7c.304 0 .55-.246.55-.55V5.507zM1.806 25.25V3.35H1.29c-.304 0-.54.237-.54.54v20.82c0 .298.242.54.54.54h.516z"/><path d="M9.583 12.35h5.11M9.583 16.25h7.667M9.583 20.15h7.667" stroke-linecap="round" stroke-linejoin="round"/><path d="M17.25.65v3.9c0 .718.582 1.3 1.3 1.3h3.81"/></g></svg>