<svg width="22" height="28" viewBox="0 0 22 28" xmlns="http://www.w3.org/2000/svg"><g fill="#FFF" fill-rule="evenodd"><path d="M21.822 18.77L20.46 16.7l-.92-1.396-1.046-1.597c-.29-.44-.78-.707-1.308-.707H11v.83h6.252c.268 0 .517.138.66.363l2.916 4.588-6.035-.01c-.717 1.794-1.98 2.692-3.793 2.692-1.812 0-3.076-.898-3.793-2.693l-5.923.01 2.986-4.593c.144-.222.39-.356.656-.356H11V13H4.812c-.526 0-1.017.265-1.306.704L.163 18.78 0 19.02V26.7C0 27.416.576 28 1.284 28h19.432c.708 0 1.284-.584 1.284-1.302V19.08l-.178-.31z" fill-rule="nonzero"/><path d="M10.182 7.46L6.087 3.286c-.242-.246-.638-.25-.885-.008-.246.242-.25.638-.008.884l5.154 5.252c.117.12.277.186.444.187.166.002.327-.064.445-.182l5.26-5.26c.122-.123.183-.283.183-.443 0-.16-.06-.32-.183-.44-.244-.245-.64-.245-.884 0l-4.18 4.18v-6.7c0-.345-.28-.625-.625-.625-.346 0-.625.28-.625.625V7.46z"/></g></svg>