<svg width="19" height="20" viewBox="0 0 19 20" xmlns="http://www.w3.org/2000/svg"><path d="M17.612 18.254H.737C.33 18.254 0 18.587 0 19c0 .41.33.744.737.744h16.875c.408 0 .737-.333.737-.745 0-.413-.33-.746-.738-.746m-16.098-5.86l8.2-8.316 2.102 2.13-8.208 8.3H1.514v-2.115zM11.96 1.797l2.113 2.136-1.21 1.222-2.108-2.13 1.204-1.228zM.776 15.998h3.136c.196 0 .383-.08.52-.218L15.637 4.46c.137-.14.216-.332.216-.526 0-.2-.08-.388-.216-.527L12.48.22c-.138-.14-.324-.22-.52-.22-.198 0-.384.08-.522.22L.256 11.557c-.138.144-.217.333-.217.527v3.17c0 .41.33.744.737.744z" fill="#222" fill-rule="evenodd"/></svg>