<svg width="19" height="18" viewBox="0 0 19 18" xmlns="http://www.w3.org/2000/svg"><g fill="#222" fill-rule="evenodd"><path d="M6.252 7.235c0-.41-.313-.744-.7-.744l-3.11.012c.897-2.948 3.52-5 6.452-5.01h.023c3.274 0 6.09 2.477 6.692 5.9.06.357.354.608.686.608.042 0 .09-.004.13-.013.38-.076.632-.465.562-.87C16.258 2.988 12.868 0 8.918 0h-.03C5.645.01 2.71 2.102 1.413 5.2l-.01-2.797c0-.41-.317-.743-.7-.743H.696C.313 1.662 0 1.997 0 2.408l.014 4.848c0 .198.075.388.206.527.13.14.308.217.495.217l4.84-.017c.388 0 .702-.337.697-.748M18.986 10.733c-.005-.405-.322-.733-.71-.733h-.004l-4.89.016c-.393.002-.71.332-.71.738.005.405.322.732.71.732h.004l3.193-.01c-.872 2.98-3.53 5.044-6.56 5.054H10c-2.98 0-5.997-2.43-6.597-5.313-.086-.398-.464-.65-.842-.564-.382.085-.628.477-.543.873C2.76 15.1 6.34 18 10 18h.024c3.3-.01 6.233-2.036 7.548-5.07l.01 2.585c0 .405.316.733.71.733.39 0 .708-.332.708-.737l-.014-4.777"/></g></svg>