<svg width="17" height="14" viewBox="0 0 17 14" xmlns="http://www.w3.org/2000/svg"><title>Logout-icon</title><g fill="none" fill-rule="evenodd"><path d="M15.44 7.57l-3.04 3.512c-.18.207-.183.546-.007.758.177.21.465.214.644.007l3.827-4.42c.087-.1.136-.236.136-.38 0-.142-.047-.28-.133-.38l-3.833-4.51c-.09-.105-.205-.157-.322-.157-.116 0-.233.052-.322.157-.178.21-.178.548 0 .757L15.436 6.5h-9.98c-.252 0-.456.24-.456.535 0 .296.204.535.455.535h9.985z" fill="#EC4954"/><path stroke="#EC4954" stroke-linecap="round" stroke-linejoin="round" d="M9.012 4.323V1H1v12.476h8.064V9.79"/></g></svg>