<svg width="21" height="21" viewBox="0 0 21 21" xmlns="http://www.w3.org/2000/svg"><g stroke="#222" stroke-width="2" fill="none" fill-rule="evenodd"><path d="M10.778 1.532v1M10.778 17.532v1.78" stroke-linecap="round" stroke-linejoin="bevel"/><path d="M10.39 17.532c1.905 0 3.683-.807 4.957-2.204 1.156-1.268 1.81-2.93 1.81-4.697 0-3.814-3.034-6.9-6.768-6.9-3.735 0-6.77 3.086-6.77 6.9 0 3.816 3.035 6.902 6.77 6.902z"/><g stroke-linecap="round" stroke-linejoin="bevel"><path d="M19.19 11.115h-1.78M3.19 11.115H1.41"/></g><g stroke-linecap="round" stroke-linejoin="bevel"><path d="M17.082 16.918l-1.468-1.467M5.342 5.18L4.036 3.872"/></g><g stroke-linecap="round" stroke-linejoin="bevel"><path d="M3.607 17.736l1.26-1.26M15.628 5.715l1.258-1.26"/></g></g></svg>