<svg width="16" height="18" viewBox="0 0 16 18" xmlns="http://www.w3.org/2000/svg"><path d="M5.344 18c-1.477 0-3.026-.564-4.026-1.805-1.557-1.933-1.743-4.252-.51-6.36.535-.92 4.115-4.595 7.546-8.068.424-.43.714-.723.796-.81.78-.827 3.145-1.69 5.074.068 1.73 1.756 1.445 3.99.28 5.3-.328.37-3.407 3.608-6.376 6.727l-.803.845c-.365.385-1.083.816-1.862.812-.587-.013-1.122-.277-1.55-.765-1.146-1.346-.3-2.826.307-3.42l6.595-6.55c.27-.27.7-.26.96.02s.25.724-.02.992l-6.6 6.553c-.132.135-.77.836-.23 1.47.17.194.353.29.565.294h.016c.35 0 .706-.238.85-.39l.806-.848c1.637-1.72 5.987-6.29 6.343-6.69.503-.567 1.108-1.99-.204-3.322-1.41-1.286-3.004-.302-3.18-.116-.084.09-.382.39-.818.833-1.685 1.707-6.815 6.9-7.335 7.79-.927 1.588-.788 3.27.392 4.735 1.228 1.525 3.83 1.65 5.1.68l.043-.03c1.006-.65 4.928-4.913 7.318-7.62.254-.286.684-.305.96-.044.276.263.295.707.042.993-.618.7-6.06 6.84-7.578 7.848-.76.572-1.81.88-2.9.88" fill="#222" fill-rule="evenodd"/></svg>