<svg width="20" height="20" viewBox="0 0 20 20" xmlns="http://www.w3.org/2000/svg"><path d="M6.423 6.142c.49 0 .885.345.885.772v9.26c0 .426-.395.77-.885.77s-.886-.344-.886-.77v-9.26c0-.427.396-.772.886-.772zm3.506 0c.483 0 .885.345.885.772v9.26c0 .426-.402.77-.886.77-.49 0-.886-.344-.886-.77v-9.26c0-.427.395-.772.885-.772zm2.614.772c0-.427.402-.772.886-.772.49 0 .885.345.885.772v9.26c0 .426-.395.77-.885.77-.484 0-.886-.344-.886-.77v-9.26zm3.69 11.286c0 .138-.13.257-.295.257H3.984c-.16 0-.296-.12-.296-.257V4.372h12.544V18.2zM7.308 1.8c0-.138.136-.257.295-.257h4.646c.164 0 .294.12.294.257v1.03H7.308V1.8zm11.807 1.03h-4.8V1.8c0-.992-.927-1.8-2.066-1.8H7.602c-1.14 0-2.066.808-2.066 1.8v1.03H.885C.4 2.83 0 3.173 0 3.6c0 .428.4.772.885.772H1.92V18.2c0 .992.925 1.8 2.065 1.8H15.94c1.138 0 2.065-.808 2.065-1.8V4.372h1.11c.49 0 .885-.344.885-.77 0-.428-.396-.773-.885-.773z" fill="#222" fill-rule="evenodd"/></svg>