<svg width="20" height="20" viewBox="0 0 20 20" xmlns="http://www.w3.org/2000/svg"><path d="M13.072 7.148c-3.49 0-7.744.032-10.21.053l5.582-5.737c.323-.335.323-.878 0-1.212-.327-.334-.855-.334-1.183 0L.245 7.47C.21 7.505.19 7.54.16 7.574c-.05.072-.07.12-.093.168-.017.043-.028.08-.034.116-.022.075-.022.098-.022.12-.004.033-.01.067-.01.1 0 .036.006.062.01.088 0 .028 0 .057.007.085.01.036.022.07.033.105.033.092.05.127.072.162.05.08.078.117.11.152.01.01 2.327 2.395 6.957 7.155.16.168.377.25.588.25.21 0 .428-.082.59-.25.326-.334.326-.877 0-1.212l-5.54-5.698c2.455-.02 6.74-.053 10.244-.053 1.272 0 2.278.38 2.995 1.13 1.34 1.402 1.31 3.685 1.31 3.727v4.57c0 .474.373.858.834.858.462 0 .834-.384.834-.857v-4.55c0-.12.05-3.01-1.777-4.938-1.04-1.098-2.45-1.654-4.195-1.654z" fill="#222" fill-rule="evenodd"/></svg>