<svg width="20" height="20" viewBox="0 0 20 20" xmlns="http://www.w3.org/2000/svg"><path d="M6.472 7.49c3.49 0 7.745.033 10.21.055L11.1 1.807c-.322-.335-.322-.878 0-1.212.328-.335.856-.335 1.183 0l7.017 7.22c.033.032.056.067.083.102.05.072.073.12.095.168.016.04.028.078.033.114.023.075.023.098.023.12.006.033.01.066.01.1 0 .036-.004.062-.01.088 0 .028 0 .057-.005.085-.01.037-.022.07-.034.106-.033.09-.05.126-.072.16-.05.08-.078.118-.11.153-.008.01-2.327 2.396-6.956 7.156-.162.167-.378.25-.59.25-.21 0-.427-.083-.588-.25-.328-.336-.328-.88 0-1.213l5.54-5.698c-2.457-.022-6.74-.054-10.246-.054-1.272 0-2.278.38-2.994 1.13-1.34 1.402-1.31 3.685-1.31 3.727v4.57c0 .475-.374.858-.835.858-.46 0-.833-.382-.833-.856v-4.55c0-.122-.05-3.01 1.778-4.938 1.04-1.098 2.45-1.655 4.194-1.655z" fill="#222" fill-rule="evenodd"/></svg>