<svg width="18" height="19" viewBox="0 0 18 19" xmlns="http://www.w3.org/2000/svg"><path d="M12.926 1.567H15.8c.427 0 .77-.35.77-.783C16.57.35 16.227 0 15.8 0h-4.996c-.425 0-.77.35-.77.784v5.404c0 .433.345.783.77.783.425 0 .77-.35.77-.782V2.685c2.9 1.09 4.888 3.956 4.888 7.14 0 4.195-3.346 7.608-7.462 7.608s-7.462-3.413-7.462-7.61c0-3.214 1.993-6.096 4.96-7.17.4-.146.61-.594.467-1-.138-.41-.58-.623-.98-.478C2.406 2.472 0 5.948 0 9.825 0 14.884 4.04 19 9 19s9-4.116 9-9.176c0-3.53-2.024-6.74-5.074-8.257" fill="#222" fill-rule="evenodd"/></svg>