<svg width="19" height="19" xmlns="http://www.w3.org/2000/svg">><path fill="none" d="M-1-1h582v402H-1z"/><g><g transform="rotate(-180 9.5 9.5)" fill-rule="evenodd" fill="none"><circle stroke="#979797" r="9" cy="9.5" cx="9.5"/><path fill="#0B59BB" d="M11.643 9.775L9 12.785c-.157.177-.16.468-.006.65.154.18.404.182.56.005l3.327-3.787c.078-.086.12-.204.12-.326 0-.123-.04-.24-.115-.327L9.55 5.134C9.475 5.044 9.374 5 9.27 5c-.1 0-.2.045-.28.134-.153.18-.153.47 0 .65l2.65 3.072H7.396c-.22 0-.396.206-.396.46 0 .253.177.46.396.46h4.247z"/></g></g></svg>