<svg width="16" height="21" viewBox="0 0 16 21" xmlns="http://www.w3.org/2000/svg"><g fill="#222" fill-rule="evenodd"><path d="M15.083 19.016h-14c-.414 0-.75.336-.75.75 0 .415.335.75.75.75h14c.415 0 .75-.335.75-.75 0-.414-.335-.75-.75-.75M7.439 16.775c.14.143.33.224.53.225.2 0 .393-.078.535-.22l6.312-6.313c.146-.146.22-.338.22-.53s-.074-.384-.22-.53c-.293-.293-.768-.293-1.06 0L8.74 14.424V.884c0-.414-.337-.75-.75-.75-.415 0-.75.336-.75.75V14.43L2.324 9.422c-.29-.296-.766-.3-1.062-.01-.295.29-.3.765-.01 1.06l6.186 6.303"/></g></svg>