<svg width="443" height="64" viewBox="0 0 443 64" xmlns="http://www.w3.org/2000/svg" xmlns:xlink="http://www.w3.org/1999/xlink"><title>TrustedDialog_logo_white-liggande</title><defs><path id="a" d="M.856.838h26.18v42.45H.855z"/><path id="c" d="M0 56h350.7V.838H0z"/></defs><g fill="none" fill-rule="evenodd"><path d="M32 0c17.673 0 32 14.327 32 32 0 17.673-14.327 32-32 32-.145 0-.283-.02-.427-.02v-30.7H.065C.048 32.85 0 32.434 0 32 0 14.327 14.327 0 32 0zM92 10.532v4.363h12.31V49.91h4.982V14.896h12.228v-4.363" fill="#FFF"/><g transform="translate(92 7.162)"><path d="M46.553 12.636c1.31 0 2.47.107 3.475.323l-.593 4.47c-1.095-.25-2.164-.377-3.205-.377-1.563 0-3.013.43-4.35 1.293-1.338.86-2.384 2.052-3.138 3.568-.754 1.518-1.13 3.2-1.13 5.05V42.75h-4.85V13.174h3.987l.537 5.414h.216c1.13-1.957 2.468-3.438 4.013-4.444 1.544-1.005 3.223-1.508 5.037-1.508zM59.41 13.174v19.043c0 2.39.535 4.16 1.604 5.32 1.067 1.158 2.724 1.737 4.97 1.737 3.033 0 5.24-.844 6.625-2.533 1.38-1.686 2.072-4.406 2.072-8.16V13.175h4.875v29.574H75.57l-.7-3.905h-.24c-.88 1.42-2.13 2.514-3.745 3.286-1.616.77-3.493 1.157-5.63 1.157-3.555 0-6.235-.852-8.04-2.56-1.804-1.704-2.706-4.434-2.706-8.187V13.174h4.9zM107.472 34.587c0 2.766-1.033 4.906-3.098 6.424-2.065 1.518-4.965 2.277-8.7 2.277-3.896 0-6.994-.62-9.292-1.858v-4.42c3.25 1.582 6.383 2.37 9.4 2.37 2.442 0 4.22-.394 5.333-1.184 1.113-.79 1.67-1.85 1.67-3.178 0-1.167-.534-2.155-1.603-2.963-1.068-.808-2.967-1.733-5.696-2.774-2.784-1.077-4.74-1.997-5.872-2.76-1.13-.763-1.962-1.62-2.49-2.572-.53-.952-.796-2.11-.796-3.474 0-2.425.988-4.337 2.963-5.738 1.976-1.4 4.688-2.1 8.135-2.1 3.358 0 6.5.664 9.427 1.993l-1.643 3.85c-3-1.256-5.702-1.885-8.108-1.885-2.01 0-3.538.32-4.58.956-1.04.64-1.56 1.514-1.56 2.627 0 1.078.448 1.97 1.346 2.68.897.71 2.99 1.693 6.275 2.95 2.46.915 4.278 1.768 5.454 2.558 1.177.79 2.043 1.68 2.6 2.666.556.99.835 2.174.835 3.557M123.804 39.327c.628 0 1.365-.062 2.21-.188.843-.126 1.48-.27 1.91-.432v3.717c-.448.198-1.143.39-2.086.58-.943.187-1.9.282-2.87.282-5.78 0-8.672-3.044-8.672-9.13V16.944h-4.175V14.63l4.23-1.94 1.94-6.303h2.882v6.787h8.538v3.77h-8.538v17.077c0 1.707.408 3.018 1.225 3.934.817.915 1.953 1.373 3.407 1.373M144.472 16.595c-2.316 0-4.148.745-5.495 2.235-1.346 1.492-2.146 3.565-2.397 6.222h15.057c-.037-2.765-.674-4.865-1.913-6.302-1.24-1.436-2.99-2.155-5.252-2.155m1.212 26.692c-4.435 0-7.914-1.342-10.437-4.027-2.523-2.684-3.784-6.38-3.784-11.083 0-4.74 1.176-8.516 3.528-11.326 2.354-2.81 5.532-4.214 9.536-4.214 3.717 0 6.68 1.198 8.888 3.596 2.21 2.396 3.313 5.642 3.313 9.736v2.937h-20.255c.09 3.357.943 5.907 2.56 7.648 1.615 1.742 3.905 2.613 6.868 2.613 1.58 0 3.08-.138 4.498-.418 1.418-.278 3.08-.82 4.983-1.63v4.256c-1.634.7-3.17 1.195-4.605 1.482-1.437.287-3.134.43-5.09.43" fill="#FFF"/><g transform="translate(161)"><mask id="b" fill="#fff"><use xlink:href="#a"/></mask><path d="M13.757 39.273c2.944 0 5.095-.804 6.45-2.41 1.357-1.608 2.034-4.242 2.034-7.905v-.89c0-4.11-.685-7.043-2.06-8.794-1.373-1.75-3.532-2.626-6.477-2.626-2.496 0-4.426.992-5.79 2.977-1.366 1.984-2.048 4.817-2.048 8.498 0 3.663.678 6.436 2.034 8.322 1.354 1.886 3.307 2.828 5.857 2.828m-.78 4.014c-3.844 0-6.824-1.33-8.944-3.987C1.915 36.643.856 32.88.856 28.014c0-4.83 1.063-8.6 3.19-11.312 2.13-2.71 5.123-4.067 8.983-4.067 3.968 0 7.02 1.454 9.158 4.364h.35c-.054-.36-.127-1.083-.216-2.17-.09-1.086-.134-1.818-.134-2.195V.837h4.847v41.91H23.13l-.727-3.958h-.215c-2.066 2.998-5.136 4.497-9.212 4.497" fill="#FFF" mask="url(#b)"/></g><path d="M223.707 22.844c0-5.01-1.234-8.803-3.703-11.38-2.47-2.576-6.2-3.865-11.192-3.865h-6.464V38.49h5.36c10.666 0 16-5.215 16-15.648m5.225-.162c0 6.5-1.774 11.47-5.32 14.908-3.547 3.44-8.633 5.158-15.26 5.158h-10.96V3.37h12.12c6.123 0 10.89 1.684 14.3 5.05 3.414 3.367 5.12 8.12 5.12 14.262" fill="#FFF"/><mask id="d" fill="#fff"><use xlink:href="#c"/></mask><path d="M236.268 42.748h4.85V13.174h-4.85v29.574zm-.376-37.573c0-1.077.273-1.86.82-2.344.55-.483 1.226-.726 2.034-.726.755 0 1.414.243 1.98.727.566.486.848 1.268.848 2.345 0 1.06-.282 1.84-.847 2.343-.567.503-1.226.754-1.98.754-.81 0-1.486-.25-2.034-.754-.548-.502-.82-1.284-.82-2.343zM258.04 39.38c2.712 0 4.845-.73 6.398-2.193 1.553-1.464 2.33-3.542 2.33-6.236v-2.666l-4.364.19c-3.393.125-5.867.664-7.42 1.615-1.553.95-2.33 2.45-2.33 4.497 0 1.545.472 2.73 1.414 3.556.943.826 2.267 1.238 3.973 1.238zm9.994 3.368l-.943-4.202h-.214c-1.473 1.85-2.94 3.103-4.404 3.758-1.463.655-3.31.983-5.535.983-2.91 0-5.19-.763-6.84-2.29-1.654-1.525-2.48-3.68-2.48-6.464 0-5.997 4.732-9.14 14.195-9.426l5.01-.19v-1.75c0-2.244-.485-3.9-1.455-4.97-.97-1.068-2.522-1.602-4.66-1.602-1.562 0-3.038.233-4.43.7-1.39.468-2.698.988-3.92 1.563l-1.48-3.636c1.49-.79 3.115-1.41 4.875-1.86 1.76-.448 3.5-.672 5.226-.672 3.572 0 6.23.79 7.972 2.37 1.74 1.58 2.612 4.093 2.612 7.542v20.146h-3.528zM280.003 42.748h4.85V.838h-4.85M296.874 27.907c0 3.717.73 6.54 2.194 8.47 1.464 1.93 3.623 2.896 6.48 2.896 2.817 0 4.964-.965 6.435-2.895 1.473-1.93 2.21-4.754 2.21-8.47 0-3.718-.74-6.515-2.222-8.39-1.48-1.878-3.65-2.816-6.504-2.816-5.73 0-8.592 3.735-8.592 11.205m22.328 0c0 4.83-1.222 8.602-3.663 11.313-2.443 2.71-5.818 4.067-10.128 4.067-2.676 0-5.046-.624-7.11-1.872-2.066-1.248-3.656-3.04-4.768-5.374-1.114-2.333-1.67-5.044-1.67-8.133 0-4.812 1.202-8.56 3.61-11.245 2.405-2.685 5.78-4.026 10.127-4.026 4.166 0 7.474 1.37 9.925 4.107 2.452 2.738 3.677 6.46 3.677 11.164M337.42 39.327c2.98 0 5.15-.803 6.506-2.41 1.355-1.608 2.033-4.19 2.033-7.744v-1.16c0-3.95-.684-6.822-2.048-8.617-1.365-1.796-3.564-2.694-6.6-2.694-2.477 0-4.394.983-5.75 2.95-1.356 1.966-2.033 4.772-2.033 8.417 0 3.66.66 6.454 1.98 8.375 1.318 1.922 3.29 2.882 5.91 2.882zm8.485 3.15l.162-3.634h-.215c-1.994 2.963-5.047 4.444-9.16 4.444-3.823 0-6.81-1.334-8.954-4-2.146-2.667-3.218-6.424-3.218-11.273 0-4.757 1.08-8.51 3.245-11.257 2.164-2.748 5.122-4.12 8.875-4.12 4.004 0 7.093 1.49 9.265 4.47h.296l.648-3.933h3.85v30.058c0 4.24-1.072 7.425-3.217 9.563C345.336 54.93 342 56 337.476 56c-4.31 0-7.857-.63-10.64-1.886v-4.47c2.873 1.543 6.51 2.316 10.91 2.316 2.513 0 4.5-.737 5.965-2.21 1.463-1.472 2.195-3.51 2.195-6.113v-1.16z" fill="#FFF" mask="url(#d)"/></g></g></svg>